# xmcd
# 
# Track frame offsets:
#     150
#     19838
#     37595
#     63350
#     81493
#     100898
#     129975
#     148695
#     167382
#     189678
#     210170
#     232288
#     250885
#     268780
#     285318
#     303985
#     323758
# 
# Disc length: 4559
# 
# Revision: 91
# Processed by: cddbd v1.5.2PL0 Copyright (c) Steve Scherf et al.
# Submitted via: fre:ac v1.0.31
# 
DISCID=e611cd11
DTITLE=Queen - Greatest Hits II
DYEAR=1992
DGENRE=Rock/Pop
TTITLE0=A Kind Of Magic
TTITLE1=Under Pressure
TTITLE2=Radio Ga Ga
TTITLE3=I Want It All
TTITLE4=I Want To Break Free
TTITLE5=Innuendo
TTITLE6=It's A Hard Life
TTITLE7=Breakthru
TTITLE8=Who Wants To Live Forever
TTITLE9=Headlong
TTITLE10=The Miracle
TTITLE11=I'm Going Slightly Mad
TTITLE12=The Invisible Man
TTITLE13=Hammer To Fall
TTITLE14=Friends Will Be Friends
TTITLE15=The Show Must Go On
TTITLE16=One Vision
EXTD=
EXTT0=
EXTT1=
EXTT2=
EXTT3=
EXTT4=
EXTT5=
EXTT6=
EXTT7=
EXTT8=
EXTT9=
EXTT10=
EXTT11=
EXTT12=
EXTT13=
EXTT14=
EXTT15=
EXTT16=
PLAYORDER=
